<svg xmlns="http://www.w3.org/2000/svg" viewBox="0 0 64 64" width="64" height="64"><defs><clipPath id="img64"><rect x="13.50" y="15.50" width="37.00" height="33.00"/></clipPath></defs><rect x="0.00" y="0.00" width="64.00" height="64.00" rx="14.08" fill="#5A3550"/><rect x="8.50" y="10.50" width="47.00" height="43.00" rx="1.50" fill="#F7F7F5"/><g clip-path="url(#img64)"><rect x="13.50" y="15.50" width="37.00" height="33.00" fill="#F7F7F5"/><rect x="13.50" y="15.50" width="22.20" height="33.00" fill="#5A3550"/><rect x="35.70" y="15.50" width="4.90" height="4.90" fill="#BCA9B7"/><rect x="45.50" y="15.50" width="4.90" height="4.90" fill="#BCA9B7"/><rect x="40.60" y="20.40" width="4.90" height="4.90" fill="#BCA9B7"/><rect x="50.40" y="20.40" width="0.10" height="4.90" fill="#BCA9B7"/><rect x="35.70" y="25.30" width="4.90" height="4.90" fill="#BCA9B7"/><rect x="45.50" y="25.30" width="4.90" height="4.90" fill="#BCA9B7"/><rect x="40.60" y="30.20" width="4.90" height="4.90" fill="#BCA9B7"/><rect x="50.40" y="30.20" width="0.10" height="4.90" fill="#BCA9B7"/><rect x="35.70" y="35.10" width="4.90" height="4.90" fill="#BCA9B7"/><rect x="45.50" y="35.10" width="4.90" height="4.90" fill="#BCA9B7"/><rect x="40.60" y="40.00" width="4.90" height="4.90" fill="#BCA9B7"/><rect x="50.40" y="40.00" width="0.10" height="4.90" fill="#BCA9B7"/><rect x="35.70" y="44.90" width="4.90" height="3.60" fill="#BCA9B7"/><rect x="45.50" y="44.90" width="4.90" height="3.60" fill="#BCA9B7"/><circle cx="22.00" cy="24.50" r="3.40" fill="#F7F7F5"/><path d="M12.50,48.50 L24.50,32.50 L36.50,48.50 Z" fill="#F7F7F5"/><path d="M29.50,48.50 L38.50,36.50 L51.50,48.50 Z" fill="#432840" opacity="0.85"/></g><rect x="13.50" y="15.50" width="37.00" height="33.00" fill="none" stroke="#5A3550" stroke-opacity="0.18" stroke-width="0.80"/><path d="M49.5,8.7 C50.268,12.06 50.94,12.732 54.3,13.5 C50.94,14.268 50.268,14.94 49.5,18.3 C48.732,14.94 48.06,14.268 44.7,13.5 C48.06,12.732 48.732,12.06 49.5,8.7 Z" fill="#F7F7F5" opacity="1"/></svg>