<svg xmlns="http://www.w3.org/2000/svg" viewBox="0 0 64 64" width="64" height="64">
  <defs>
    <linearGradient id="g" x1="0" y1="0" x2="1" y2="1">
      <stop offset="0" stop-color="#6366F1"/>
      <stop offset="1" stop-color="#D946EF"/>
    </linearGradient>
  </defs>
  <rect width="64" height="64" rx="15" fill="url(#g)"/>
  <g fill="#fff">
    <!-- Main AI sparkle, centered and bold so it reads at 16px. -->
    <path d="M32 14 C 33.7 27.5, 36.5 30.3, 50 32 C 36.5 33.7, 33.7 36.5, 32 50 C 30.3 36.5, 27.5 33.7, 14 32 C 27.5 30.3, 30.3 27.5, 32 14 Z"/>
    <!-- Small accent sparkle, top-right corner. -->
    <path d="M50 11 C 50.4 15.1, 51.9 16.6, 56 17 C 51.9 17.4, 50.4 18.9, 50 23 C 49.6 18.9, 48.1 17.4, 44 17 C 48.1 16.6, 49.6 15.1, 50 11 Z" opacity="0.95"/>
  </g>
</svg>
